<svg xmlns="http://www.w3.org/2000/svg" xmlns:xlink="http://www.w3.org/1999/xlink" viewBox="0 0 294.24 82.52"><defs><style>.cls-1,.cls-3{fill:none;}.cls-1{stroke:#000;stroke-miterlimit:10;}.cls-2{fill:#1d1d1b;}.cls-3{stroke-width:5px;stroke:url(#New_Gradient_Swatch_1);}</style><linearGradient id="New_Gradient_Swatch_1" x1="3.46" y1="42.25" x2="291.74" y2="42.25" gradientUnits="userSpaceOnUse"><stop offset="0" stop-color="#d62c5d"/><stop offset="0.5" stop-color="#95328a"/><stop offset="1" stop-color="#1c2949"/></linearGradient></defs><g id="Layer_2" data-name="Layer 2"><g id="Layer_1-2" data-name="Layer 1"><polygon class="cls-1" points="47.63 5 4.33 80 90.93 80 47.63 5"/><path class="cls-2" d="M104.37,19.32h2.91v58h30.48V80H104.37Z"/><path class="cls-2" d="M149.77,19.32H186.9v2.73H152.69V47.44h33.58v2.73H152.69V77.29H186.9V80H149.77Z"/><path class="cls-2" d="M218,53.81H203.46V80h-2.91V19.32h20.93c9.83,0,17.93,6.1,17.93,17.2s-8.1,17.29-17.93,17.29L240.23,80H236.5Zm3.46-31.76h-18v29h18c8.92,0,14.75-6.19,14.75-14.56S230.4,22.05,221.48,22.05Z"/><path class="cls-2" d="M268.26,22.05H247.78V19.32h44v2.73H271.17V80h-2.91Z"/><path class="cls-2" d="M104.37,19.32h2.91v58h30.48V80H104.37Z"/><path class="cls-2" d="M149.77,19.32H186.9v2.73H152.69V47.44h33.58v2.73H152.69V77.29H186.9V80H149.77Z"/><path class="cls-2" d="M218,53.81H203.46V80h-2.91V19.32h20.93c9.83,0,17.93,6.1,17.93,17.2s-8.1,17.29-17.93,17.29L240.23,80H236.5Zm3.46-31.76h-18v29h18c8.92,0,14.75-6.19,14.75-14.56S230.4,22.05,221.48,22.05Z"/><path class="cls-2" d="M268.26,22.05H247.78V19.32h44v2.73H271.17V80h-2.91Z"/><line class="cls-1" x1="47.63" y1="23.75" x2="47.63" y2="61.25"/><circle cx="47.63" cy="69.99" r="2.26"/><polygon class="cls-3" points="47.63 5 4.33 80 90.93 80 47.63 5"/><polygon class="cls-3" points="47.63 5 4.33 80 90.93 80 47.63 5"/><polygon class="cls-3" points="47.63 5 4.33 80 90.93 80 47.63 5"/><path class="cls-3" d="M104.37,19.32h2.91v58h30.48V80H104.37Z"/><path class="cls-3" d="M149.77,19.32H186.9v2.73H152.69V47.44h33.58v2.73H152.69V77.29H186.9V80H149.77Z"/><path class="cls-3" d="M218,53.81H203.46V80h-2.91V19.32h20.93c9.83,0,17.93,6.1,17.93,17.2s-8.1,17.29-17.93,17.29L240.23,80H236.5Zm3.46-31.76h-18v29h18c8.92,0,14.75-6.19,14.75-14.56S230.4,22.05,221.48,22.05Z"/><path class="cls-3" d="M268.26,22.05H247.78V19.32h44v2.73H271.17V80h-2.91Z"/><path class="cls-3" d="M104.37,19.32h2.91v58h30.48V80H104.37Z"/><path class="cls-3" d="M149.77,19.32H186.9v2.73H152.69V47.44h33.58v2.73H152.69V77.29H186.9V80H149.77Z"/><path class="cls-3" d="M218,53.81H203.46V80h-2.91V19.32h20.93c9.83,0,17.93,6.1,17.93,17.2s-8.1,17.29-17.93,17.29L240.23,80H236.5Zm3.46-31.76h-18v29h18c8.92,0,14.75-6.19,14.75-14.56S230.4,22.05,221.48,22.05Z"/><path class="cls-3" d="M268.26,22.05H247.78V19.32h44v2.73H271.17V80h-2.91Z"/><path class="cls-3" d="M104.37,19.32h2.91v58h30.48V80H104.37Z"/><path class="cls-3" d="M149.77,19.32H186.9v2.73H152.69V47.44h33.58v2.73H152.69V77.29H186.9V80H149.77Z"/><path class="cls-3" d="M218,53.81H203.46V80h-2.91V19.32h20.93c9.83,0,17.93,6.1,17.93,17.2s-8.1,17.29-17.93,17.29L240.23,80H236.5Zm3.46-31.76h-18v29h18c8.92,0,14.75-6.19,14.75-14.56S230.4,22.05,221.48,22.05Z"/><path class="cls-3" d="M268.26,22.05H247.78V19.32h44v2.73H271.17V80h-2.91Z"/><line class="cls-3" x1="47.63" y1="23.75" x2="47.63" y2="61.25"/><circle class="cls-3" cx="47.63" cy="69.99" r="2.26"/></g></g></svg>